<?xml version="1.0" standalone="no"?>
<!DOCTYPE svg PUBLIC "-//W3C//DTD SVG 20010904//EN"
 "http://www.w3.org/TR/2001/REC-SVG-20010904/DTD/svg10.dtd">
<svg version="1.0" xmlns="http://www.w3.org/2000/svg"
 width="512.000000pt" height="512.000000pt" viewBox="0 0 512.000000 512.000000"
 preserveAspectRatio="xMidYMid meet">
<metadata>
Created by potrace 1.14, written by Peter Selinger 2001-2017
</metadata>
<g transform="translate(0.000000,512.000000) scale(0.100000,-0.100000)"
fill="#000000" stroke="none">
<path d="M0 2560 l0 -2560 2560 0 2560 0 0 2560 0 2560 -2560 0 -2560 0 0
-2560z m850 1225 c129 0 278 2 330 5 l95 5 0 -50 0 -50 -87 -21 c-107 -26
-146 -42 -157 -63 -25 -45 -35 -202 -35 -546 l-1 -360 560 0 560 0 3 355 c3
375 -6 531 -35 562 -19 21 -64 37 -168 58 l-80 16 -3 39 c-4 67 -5 66 174 54
152 -11 608 -6 681 7 30 6 32 4 38 -29 12 -62 3 -71 -86 -92 -44 -10 -99 -27
-122 -39 -41 -21 -42 -22 -55 -96 -15 -91 -12 -1942 4 -2000 12 -44 52 -65
166 -88 46 -9 86 -21 90 -27 4 -5 8 -23 8 -40 0 -59 2 -59 -221 -48 -128 6
-289 6 -433 0 -255 -10 -248 -12 -244 58 l3 40 60 7 c79 10 158 34 184 55 16
14 23 37 31 103 13 107 14 897 1 905 -14 8 -1044 7 -1088 -1 l-36 -7 6 -416
c5 -366 12 -494 33 -562 6 -23 85 -55 169 -70 39 -7 73 -18 77 -23 14 -20 9
-86 -6 -92 -8 -3 -106 -2 -218 3 -124 6 -289 6 -426 0 -251 -11 -244 -12 -240
58 l3 40 60 7 c83 11 162 35 185 58 11 11 22 42 27 77 4 32 8 488 8 1013 0
1063 3 1019 -65 1052 -19 9 -75 25 -125 35 -87 17 -90 19 -93 47 -2 16 -1 39
2 52 l6 24 113 -7 c61 -5 218 -8 347 -8z m3365 -24 c100 -27 243 -97 315 -154
150 -118 240 -362 211 -569 -36 -258 -192 -481 -414 -592 -110 -56 -198 -76
-334 -76 -130 0 -210 23 -264 76 -34 33 -39 44 -39 82 0 41 2 44 23 38 244
-71 411 -38 546 110 93 102 141 235 141 390 0 294 -123 495 -332 544 -59 13
-282 13 -352 -2 -47 -9 -60 -16 -69 -37 -9 -19 -12 -276 -12 -986 0 -1020 0
-1021 47 -1065 30 -28 118 -59 205 -73 63 -10 73 -14 78 -35 3 -14 3 -38 0
-54 l-7 -29 -201 6 c-111 4 -207 8 -214 10 -7 2 -125 -1 -264 -7 -283 -12
-271 -15 -267 62 l3 45 55 6 c82 9 169 37 195 63 17 17 25 40 30 87 3 35 5
489 3 1009 -3 816 -5 949 -18 975 -18 36 -81 62 -190 79 l-75 12 0 49 0 50
385 6 c600 9 720 6 815 -20z"/>
</g>
</svg>
